<svg xmlns="http://www.w3.org/2000/svg" width="380" height="310" viewBox="0 0 380 310"><path d="M10 0h360c5.522 0 10 4.477 10 10v289.949c0 5.522-4.478 10-10 10H10c-5.522 0-10-4.478-10-10V10C0 4.477 4.478 0 10 0zm27.715 272.235h304.57V37.715H37.715z" fill="#8c8c8c"/><path d="M304.445 248.278H75.554c-5.121 0-9.271-4.151-9.271-9.272v-53.155c0-2.42.943-4.743 2.637-6.476l25.474-26.114c3.475-3.559 12.83-.425 12.83-.425l48.59728 18.05764L238.18 80.155c3.35-3.038 8.398-2.791 11.955 0l60.033 123.694c2.241 1.758 3.551 9.248 3.551 12.097v23.058c-.001 5.121-4.153 9.274-9.274 9.274zM96.28503 116.953c-16.54249 0-30.00203-13.45927-30.00203-30 0-16.54213 13.45954-30 30.00203-30 16.53843 0 29.99797 13.45787 29.99797 30 .002 16.54073-13.45547 30-29.99797 30z" fill="#8c8c8c"/></svg>